<svg xmlns="http://www.w3.org/2000/svg" width="249" height="255" fill="none"><path fill="#DDDEEA" fill-rule="evenodd" d="m119.502 207.26-102.757 3.588s-49.784 37.589 55.399 38.937c105.182 1.349 153.128-5.347 153.128-5.347s57.261-21.468-32.66-31.721-73.11-5.457-73.11-5.457" clip-rule="evenodd" opacity=".4"/><path fill="#EFBFA5" fill-rule="evenodd" d="m69.063 96.495 2.218-2.745-.379-3.087.614-.413.54.735.42-2.653 1.637-1.44 2.829.655 1.888 2.328-.95 2.737-2.608 2.253-2.873 3.888z" clip-rule="evenodd"/><path fill="#2F3789" fill-rule="evenodd" d="m69.064 93.983-7.281 10.934-15.612-21.3-5.7 14.105 17.656 23.124 6.155.504 11.644-24.991z" clip-rule="evenodd"/><path fill="#B97262" fill-rule="evenodd" d="m184.431 99.506-3.506-3.849 1.478-1.668 2.949 2.069.355-1.136 2.625 3.683-1.318 1.956z" clip-rule="evenodd"/><path fill="#fff" fill-rule="evenodd" d="m214.762 89.29-8.915 16.746-18.582-9.918-2.092 4.231 21.295 18.256 20.257-21.317z" clip-rule="evenodd"/><path fill="url(#a)" fill-rule="evenodd" d="M217.658 152.923v-6.782l-18.745-3.133-4.616 24.712-.382 12.118 9.997 41.184 6.248-1.248-2.499-33.696 4.484-14.554 7.628 52.124h4.566l2.884-37.44 6.249-37.441z" clip-rule="evenodd"/><path fill="#2B2B2B" fill-rule="evenodd" d="m204.946 221.878-4.77 5.042 1.378 2.555 9.842-4.718-1.812-3.735zm14.912 3.371-5.88 3.691.695 2.818 10.71-2.112-.821-4.069z" clip-rule="evenodd"/><path fill="#EFBFA5" fill-rule="evenodd" d="M205.575 73.273c4.05.297 7.837-3.024 11.822-2.2 2.592.536 4.638 2.832 5.429 5.42.369 1.205.499 2.52.138 3.718-.234.778-.666 1.48-1.174 2.103a8.8 8.8 0 0 1-2.434 2.057 16 16 0 0 0 1.734 2.297l-5.603 2.143-1.238-3.215a8.5 8.5 0 0 1-1.67-.253c-3.316-.86-6.065-3.76-6.805-7.179-.346-1.602-.28-3.258-.199-4.891" clip-rule="evenodd"/><path fill="#2F3789" fill-rule="evenodd" d="m206.598 74.493 12.522-1.486 2.43 9.552 3.536-2.802-1.822-15.63-17.672-.38-7.652 4.482.324 4.493 6.842 4.6z" clip-rule="evenodd"/><path fill="url(#b)" fill-rule="evenodd" d="m211.458 90.29 14.874-5.892s5.285 13.112 11.294 34.115c6.01 21.004-2.79 47.74-2.79 47.74s-30.48-15.041-37.284-16.375l4.941-31.439z" clip-rule="evenodd"/><path fill="url(#c)" fill-rule="evenodd" d="M9.543 144.127c-.131 3.874-.047 9.054 1.586 9.248.305.036.6-.099.87-.23 2.838-1.377 4.863-3.325 7.662-4.655 2.933-1.395 6.267-2.125 9.525-2.629 4.86-.775 9.8-1.241 14.691-1.284 4.204-.038 8.575 1.877 12.549 2.931 3.018 1.086 3.702 2.654 6.647 3.846 2.158-12.124.697-24.94-1.34-36.977-1.031-6.104-1.569-10.936-4.716-16.367a72 72 0 0 0-10.938-14.367c-4.032-4.103-13.352-5.89-18.936-3.122-4.48 2.219-6.61 9.78-8.786 13.82-1.908 3.54-4.311 13.198-5.025 17.015-.86 4.594-1.653 9.166-2.278 13.727-.692 5.051-1.18 10.087-1.321 15.094-.016.553-.128 2.101-.19 3.95" clip-rule="evenodd"/><path fill="url(#d)" fill-rule="evenodd" d="m17.585 153.84.12-24.411 12.205-1.794-.335-2.006 6.985 1.028 6.985-1.028-.21 2.024 12.08 1.776.488 42.195-7.962 54.404h-6.122l-3.713-48.205-.028.272-6.777 47.933h-6.122z" clip-rule="evenodd"/><path fill="#1D2B56" fill-rule="evenodd" d="M31.266 225.3h-6.62l-3.31 3.306 3.31 3.305 6.62-3.305zh10.588v3.306l6.62 3.305 3.31-3.305-3.31-3.306z" clip-rule="evenodd"/><path fill="#fff" fill-rule="evenodd" d="m32.12 81.188 8.274.078s8.878 30.984 9.204 36.324c.32 5.243 2.564 26.499 2.564 26.499s-9.162.216-19.72 1.5c-10.32 2.206-11.187.902-11.187.902s5.57-22.342 5.754-28.76c.19-6.566 1.03-28.25 1.03-28.25z" clip-rule="evenodd"/><path fill="#D67086" fill-rule="evenodd" d="M33.32 81.694h4.072c.951 0 1.49 1.088.914 1.843l-1.673 2.188 4.45 40.984-5.476 5.375-3.765-6.383 1.027-39.976-.663-2.601a1.148 1.148 0 0 1 1.113-1.43" clip-rule="evenodd"/><path fill="#EFBFA5" fill-rule="evenodd" d="M37.138 81.348a1 1 0 0 1-.338.194c-.258.084-.536.054-.805.022l-3.283-.388c.36-3.347-1.599-4.104-3.508-6.257-1.934-2.182-1.34-5.125-1.23-7.795.03-.744.067-1.51.382-2.185.552-1.184 1.839-1.838 3.088-2.226 3.188-.989 6.833-.745 9.64 1.06.747.48 1.444 1.083 1.85 1.873.623 1.217.465 2.671.29 4.028-.267 2.085-.885 4.133-2.065 5.891-1.1 1.638-3.198 2.422-3.44 4.387-.061.508-.215 1.08-.581 1.396" clip-rule="evenodd"/><path fill="#1D2B56" fill-rule="evenodd" d="M43.132 67.25c-.186.84-.578 1.692-.374 2.528 1.338-.453 2.212-1.82 2.686-3.209.214-.63.37-1.296.317-1.962-.054-.666-.344-1.336-.87-1.712-.735-.525-2.054-.32-2.264.633-.212.96.785 2.456.505 3.721" clip-rule="evenodd"/><path fill="#1D2B56" fill-rule="evenodd" d="M50.235 59.862c-.032-1.008-.417-1.909-1.318-2.517-.778-.524-1.674-.96-2.147-1.793-.366-.647-.42-1.447-.783-2.097-.658-1.175-2.085-1.52-3.327-1.919-3.107-.996-4.78-2.147-8.07-.87-2.34.906-5.363 1.028-7.534 2.35-.907.553-1.678 1.44-2.311 2.429-2.194 3.425-2.72 8.241-1.292 11.814.32.8.726 1.535 1.16 2.239.87 1.407 1.8 3.14 3.337 3.829.098-.663.592-1.03.747-1.681.111-.47.074-.961.05-1.444-.095-1.879-.671-4.849 1.206-5.78 2.376-1.178 6.831-.115 9.119.882 2.024.882 5.44 2.03 7.598 1.085 2.003-.878 3.632-4.375 3.565-6.527" clip-rule="evenodd"/><path fill="url(#e)" fill-rule="evenodd" d="M143.606 80.171a5.1 5.1 0 0 0-2.452 5.245l8.797 52.219c.402 2.38 2.042 3.89 3.689 4.073a5.1 5.1 0 0 0 2.192.108l31.022-5.212a5.1 5.1 0 0 0 4.188-5.873l-8.798-52.219a5.103 5.103 0 0 0-5.881-4.181l-22.08 3.71-.569.095-.021.004-8.351 1.403a5 5 0 0 0-1.071.301 4 4 0 0 0-.665.327" clip-rule="evenodd"/><path fill="#fff" fill-rule="evenodd" d="m167.978 91.71-1.142-6.775c-.06-.36.237-.71.664-.783l4.769-.801c.428-.072.824.162.884.522l1.142 6.776c.06.36-.237.71-.664.782l-4.77.802c-.427.071-.823-.162-.883-.522" clip-rule="evenodd"/><path fill="#1D2B56" fill-rule="evenodd" d="m167.777 90.568-.025-.148 4.932-.828.024.147zm-.725-4.425-.025-.147 6.332-1.064.024.147z" clip-rule="evenodd"/><path fill="#1D2B56" fill-rule="evenodd" d="m172.227 91.695-.32-1.9.157-.026.32 1.9zm-1.46.245-.32-1.9.158-.026.32 1.9zm-1.262.212-.321-1.9.158-.026.32 1.9zm1.851-6.826-.298-1.771.158-.027.298 1.771zm1.226 3.122-.348-2.065.158-.027.348 2.066zm-3.955.665-.348-2.066.158-.026.348 2.065z" clip-rule="evenodd"/><path fill="#fff" fill-rule="evenodd" d="m155.373 125.921-.148-.877 2.502-.421.148.878zm.247 1.468-.147-.877 2.502-.421.148.877zm.248 1.468-.148-.878 2.502-.42.148.877zm.247 1.467-.148-.877 2.502-.42.148.877zm.247 1.468-.147-.877 2.502-.421.147.878zm.248 1.468-.148-.878 2.502-.42.147.877zm10.145 1.371L158.49 85.57l2.814-.473 8.266 49.061z" clip-rule="evenodd"/><path fill="#424DC1" fill-rule="evenodd" d="m108.96 151.201-4.364-.73 12.102-72.064 4.363.73a2.415 2.415 0 0 1 1.984 2.78l-11.302 67.304a2.415 2.415 0 0 1-2.783 1.98" clip-rule="evenodd"/><path fill="#00ADB5" fill-rule="evenodd" d="m109.194 148.679-4.73-.792 11.264-67.082 4.73.792z" clip-rule="evenodd"/><path fill="url(#f)" fill-rule="evenodd" d="m100.067 156.608-39.736-6.655a5.066 5.066 0 0 1-4.164-5.834l12.554-74.76a5.07 5.07 0 0 1 5.841-4.159l39.736 6.655a5.066 5.066 0 0 1 4.164 5.834l-12.554 74.761a5.07 5.07 0 0 1-5.841 4.158" clip-rule="evenodd"/><path fill="#00ADB5" fill-rule="evenodd" d="m70.7 147.746-10.285-1.722 1.057-6.298 10.285 1.722zm14.954 2.504-10.285-1.722 1.057-6.298 10.285 1.722z" clip-rule="evenodd"/><path fill="#D67086" fill-rule="evenodd" d="m100.608 152.755-10.285-1.722 1.058-6.299 10.284 1.723z" clip-rule="evenodd"/><path fill="#fff" fill-rule="evenodd" d="m105.243 106.539-33.136-5.549a3.163 3.163 0 0 1-2.6-3.642l3.86-22.991a3.167 3.167 0 0 1 3.648-2.596l33.136 5.55a3.164 3.164 0 0 1 2.6 3.642l-3.861 22.99a3.165 3.165 0 0 1-3.647 2.596" clip-rule="evenodd"/><path fill="#3A44AA" fill-rule="evenodd" d="M106.548 106.848q-.186 0-.376-.031l-34.933-5.851a2.25 2.25 0 0 1-1.58-1.093l.597.09a3.16 3.16 0 0 0 1.851 1.027l33.136 5.549q.267.045.528.045a3.166 3.166 0 0 0 3.119-2.641l1.292-7.694.062-.06-1.474 8.779a2.255 2.255 0 0 1-2.222 1.88" clip-rule="evenodd"/><path fill="#E0E0E0" fill-rule="evenodd" d="M105.771 106.584q-.261 0-.528-.045l-33.136-5.549a3.15 3.15 0 0 1-1.851-1.027c1.4.216 2.795.469 4.184.735 3.888.743 7.798 1.288 11.752 1.51a92 92 0 0 0 5.202.169c5.471 0 11.055-.709 15.698-3.653a19 19 0 0 0 3.09-2.475l-1.292 7.694a3.166 3.166 0 0 1-3.119 2.641" clip-rule="evenodd"/><path fill="#3740A0" fill-rule="evenodd" d="M103.791 74.098q-.105 0-.214-.018l-26.218-4.39a1.28 1.28 0 0 1-1.054-1.476l.025-.143a1.28 1.28 0 0 1 1.477-1.052l1.047.176-.113.676 24.531 4.108.114-.676.64.107c.698.117 1.17.777 1.053 1.475l-.025.144a1.28 1.28 0 0 1-1.263 1.07" clip-rule="evenodd"/><path fill="#D4D4D4" fill-rule="evenodd" d="m81.632 86.151-6.02-1.008.217-1.288 6.019 1.008zm7.883 1.32-6.02-1.008.216-1.288 6.02 1.008zm7.882 1.32-6.02-1.008.217-1.288 6.02 1.008zm7.884 1.32-6.02-1.007.216-1.289 6.02 1.008z" clip-rule="evenodd"/><path fill="#fff" fill-rule="evenodd" d="m76.76 111.123-7.938-1.329a.93.93 0 0 1-.765-1.072l.681-4.057a.93.93 0 0 1 1.073-.763l7.94 1.329a.93.93 0 0 1 .764 1.071l-.681 4.057a.93.93 0 0 1-1.073.764m14.035 2.351-7.939-1.33a.93.93 0 0 1-.765-1.072l.682-4.056a.93.93 0 0 1 1.073-.764l7.939 1.33a.93.93 0 0 1 .765 1.071l-.682 4.057a.93.93 0 0 1-1.073.764m14.036 2.35-7.94-1.329a.93.93 0 0 1-.764-1.072l.681-4.057a.93.93 0 0 1 1.073-.763l7.939 1.329a.93.93 0 0 1 .765 1.072l-.681 4.056a.93.93 0 0 1-1.073.764m-29.549 4.102-7.94-1.329a.93.93 0 0 1-.764-1.072l.681-4.056a.93.93 0 0 1 1.073-.764l7.939 1.329c.507.085.85.565.765 1.072l-.681 4.057a.93.93 0 0 1-1.073.763m14.035 2.351-7.939-1.33a.93.93 0 0 1-.765-1.071l.681-4.057a.93.93 0 0 1 1.073-.764l7.94 1.33a.93.93 0 0 1 .764 1.071l-.681 4.057a.93.93 0 0 1-1.073.764m14.036 2.35-7.94-1.329a.93.93 0 0 1-.764-1.072l.681-4.056a.93.93 0 0 1 1.073-.764l7.939 1.329c.507.085.85.565.765 1.072l-.681 4.057a.93.93 0 0 1-1.073.763m-29.55 4.102-7.939-1.329a.93.93 0 0 1-.764-1.071l.68-4.057a.93.93 0 0 1 1.074-.764l7.939 1.329c.507.086.85.565.765 1.072l-.682 4.057a.93.93 0 0 1-1.073.763m14.036 2.351-7.94-1.33a.93.93 0 0 1-.764-1.071l.681-4.057a.93.93 0 0 1 1.073-.764l7.94 1.33a.93.93 0 0 1 .764 1.072l-.681 4.056a.93.93 0 0 1-1.073.764m14.036 2.351-7.94-1.33a.93.93 0 0 1-.765-1.071l.682-4.057a.93.93 0 0 1 1.073-.764l7.939 1.33a.93.93 0 0 1 .764 1.071l-.68 4.057a.93.93 0 0 1-1.073.764m-29.55 4.102-7.939-1.33a.93.93 0 0 1-.765-1.071l.681-4.057a.93.93 0 0 1 1.073-.764l7.94 1.33a.93.93 0 0 1 .764 1.072l-.68 4.056a.93.93 0 0 1-1.074.764m14.036 2.35-7.94-1.329a.93.93 0 0 1-.764-1.072l.681-4.056a.93.93 0 0 1 1.073-.764l7.939 1.329a.93.93 0 0 1 .765 1.072l-.681 4.057a.93.93 0 0 1-1.073.763m14.035 2.351-7.939-1.33a.93.93 0 0 1-.764-1.071l.68-4.057a.93.93 0 0 1 1.073-.764l7.939 1.33a.93.93 0 0 1 .766 1.071l-.682 4.057a.93.93 0 0 1-1.073.764" clip-rule="evenodd"/><path fill="#D4D4D4" fill-rule="evenodd" d="m103.917 96.967-12.414-2.079.267-1.587 12.413 2.08z" clip-rule="evenodd"/><path fill="#E0EBEE" fill-rule="evenodd" d="M107.949 37.75a.093.093 0 0 0-.146-.025l-1.275 1.21-.809-1.559a.094.094 0 0 0-.147-.024l-1.274 1.209-.81-1.558a.093.093 0 0 0-.146-.025l-1.274 1.21-.81-1.559a.092.092 0 0 0-.146-.024l-1.274 1.209-.81-1.559a.093.093 0 0 0-.146-.024l-1.275 1.21-.809-1.559a.093.093 0 0 0-.146-.024l-1.275 1.209-.81-1.558a.093.093 0 0 0-.145-.025l-1.275 1.209-.81-1.558a.093.093 0 0 0-.146-.024l-1.274 1.209-.81-1.558a.093.093 0 0 0-.146-.025l-1.274 1.21-.81-1.559a.093.093 0 0 0-.146-.024l-1.274 1.209-.81-1.558a.093.093 0 0 0-.146-.025l-1.274 1.21-5.486 32.67 24.531 4.11 5.486-32.673z" clip-rule="evenodd"/><path fill="#D4D4D4" fill-rule="evenodd" d="M92.508 57.655 82.26 55.94l.08-.477 10.248 1.716zm-8.401-.83-1.941-.326.048-.286 1.94.325zm19.156 2.631-3.798-.636.08-.477 3.798.636z" clip-rule="evenodd"/><path fill="#EFBFA5" fill-rule="evenodd" d="m57.088 114.136 3.454-.735 1.654-2.636.737.066-.045.91 2-1.795 2.18-.089 1.784 2.289-.004 2.997-2.463 1.527-3.447.108-4.685 1.211z" clip-rule="evenodd"/><path fill="url(#g)" fill-rule="evenodd" d="m58.674 112.187-16.782 2.841-16.69-28.206-6.846 22.65 11.768 18.163 7.568 2.792 24.81-12.078z" clip-rule="evenodd"/><path fill="#B97262" fill-rule="evenodd" d="m181.418 123.547-5.365-.242.004-2.295 3.711-.646-.503-1.086 4.566.765.319 2.386z" clip-rule="evenodd"/><path fill="url(#h)" fill-rule="evenodd" d="m215.031 95.355-9.07 18.915-23.589 4.996.875 4.702 29.159.266 16.307-20.652z" clip-rule="evenodd"/><path fill="url(#i)" d="m7.65 72.339 1.63 3.305a.25.25 0 0 0 .184.134l3.647.53c.2.029.28.276.135.417l-2.638 2.573a.25.25 0 0 0-.07.217l.622 3.633a.245.245 0 0 1-.355.258l-3.261-1.715a.25.25 0 0 0-.228 0l-3.261 1.715a.245.245 0 0 1-.355-.258l.623-3.633a.24.24 0 0 0-.07-.217l-2.64-2.573a.245.245 0 0 1 .136-.417l3.647-.53a.25.25 0 0 0 .184-.134l1.63-3.306a.244.244 0 0 1 .44 0"/><path fill="url(#j)" d="m186.367 43.245 1.631 3.305a.24.24 0 0 0 .184.134l3.646.53c.201.03.281.276.136.418l-2.638 2.573a.25.25 0 0 0-.071.216l.623 3.633a.245.245 0 0 1-.355.259l-3.262-1.716a.24.24 0 0 0-.227 0l-3.261 1.716a.245.245 0 0 1-.356-.259l.623-3.633a.24.24 0 0 0-.07-.216l-2.639-2.573a.245.245 0 0 1 .136-.418l3.646-.53a.25.25 0 0 0 .185-.134l1.63-3.305a.245.245 0 0 1 .439 0"/><g filter="url(#k)"><circle cx="127.057" cy="36.459" r="4.987" stroke="#00ADB5" stroke-width="2"/></g><circle cx="144.514" cy="78.021" r="4.156" stroke="#8270B0" stroke-width="2"/><circle cx="108.99" cy="41.926" r="1.577" fill="#B0C568"/><circle cx="91.228" cy="6.839" r="1.577" fill="#B0C568"/><circle cx="144.943" cy="29.25" r="1.577" fill="#F09EA0"/><circle cx="173.527" cy="1.577" r="1.577" fill="#67D1D3"/><circle cx="99.681" cy="73.391" r="1.577" fill="#F09EA0"/><circle cx="168.75" cy="59.576" r="1.577" fill="#F09EA0"/><circle cx="142.508" cy="58" r="1.577" fill="#67D1D3"/><circle cx="92.805" cy="44.061" r="1.577" fill="#67D1D3"/><circle cx="119.195" cy="4.731" r="1.577" fill="#67D1D3"/><defs><linearGradient id="a" x1="193.915" x2="193.915" y1="143.008" y2="223.648" gradientUnits="userSpaceOnUse"><stop stop-color="#3E568F"/><stop offset="1" stop-color="#1D2B56"/></linearGradient><linearGradient id="b" x1="198.194" x2="198.194" y1="84.398" y2="163.762" gradientUnits="userSpaceOnUse"><stop stop-color="#00ADB5"/><stop offset="1" stop-color="#45D8DF"/></linearGradient><linearGradient id="c" x1="10.332" x2="10.332" y1="79.189" y2="151.123" gradientUnits="userSpaceOnUse"><stop stop-color="#00ADB5"/><stop offset="1" stop-color="#45D8DF"/></linearGradient><linearGradient id="d" x1="18.168" x2="18.168" y1="125.629" y2="222.972" gradientUnits="userSpaceOnUse"><stop stop-color="#00ADB5"/><stop offset="1" stop-color="#45D8DF"/></linearGradient><linearGradient id="e" x1="141.844" x2="141.844" y1="74.259" y2="139.83" gradientUnits="userSpaceOnUse"><stop stop-color="#00ADB5"/><stop offset="1" stop-color="#45D8DF"/></linearGradient><linearGradient id="f" x1="57.047" x2="57.047" y1="65.13" y2="153.892" gradientUnits="userSpaceOnUse"><stop stop-color="#00ADB5"/><stop offset="1" stop-color="#45D8DF"/></linearGradient><linearGradient id="g" x1="19.028" x2="19.028" y1="86.822" y2="129.1" gradientUnits="userSpaceOnUse"><stop stop-color="#00ADB5"/><stop offset="1" stop-color="#45D8DF"/></linearGradient><linearGradient id="h" x1="203.239" x2="224.363" y1="150.016" y2="107.214" gradientUnits="userSpaceOnUse"><stop stop-color="#9CA6EB"/><stop offset="1" stop-color="#6D77D5"/></linearGradient><linearGradient id="i" x1="1.719" x2="1.719" y1="72.202" y2="83.093" gradientUnits="userSpaceOnUse"><stop stop-color="#00ADB5"/><stop offset="1" stop-color="#45D8DF"/></linearGradient><linearGradient id="j" x1="180.436" x2="180.436" y1="43.108" y2="53.999" gradientUnits="userSpaceOnUse"><stop stop-color="#00ADB5"/><stop offset="1" stop-color="#45D8DF"/></linearGradient><filter id="k" width="17.412" height="17.412" x="118.352" y="27.753" color-interpolation-filters="sRGB" filterUnits="userSpaceOnUse"><feFlood flood-opacity="0" result="BackgroundImageFix"/><feBlend in="SourceGraphic" in2="BackgroundImageFix" result="shape"/><feGaussianBlur result="effect1_foregroundBlur_1_52" stdDeviation="1.359"/></filter></defs></svg>