<svg xmlns="http://www.w3.org/2000/svg" width="352" height="304" fill="none"><path fill="#545F7A" d="M3.767 80.182V68.364h.757v11.818zm2.548-8.273a1.45 1.45 0 0 0-.674-1.09q-.59-.387-1.45-.387-.627 0-1.098.203-.465.203-.73.558a1.34 1.34 0 0 0-.258.808q0 .38.18.651.184.268.471.448.285.175.6.291.315.111.577.18l.96.258q.37.097.822.268.458.171.873.467.42.291.692.747.273.458.273 1.122 0 .767-.402 1.385-.398.619-1.163.984-.762.364-1.852.364-1.015 0-1.759-.328a2.8 2.8 0 0 1-1.163-.914 2.6 2.6 0 0 1-.475-1.362H1.92q.046.537.36.887.319.346.804.517.49.166 1.052.166.656 0 1.178-.212a2 2 0 0 0 .826-.6q.305-.388.305-.905 0-.471-.264-.767a1.9 1.9 0 0 0-.692-.48 7 7 0 0 0-.928-.323l-1.163-.332q-1.108-.32-1.755-.91-.645-.591-.646-1.546 0-.794.43-1.385.434-.596 1.163-.923a3.9 3.9 0 0 1 1.639-.333q.914 0 1.625.328.711.322 1.126.886.42.564.443 1.28zm6.148 7.22q-.913 0-1.63-.314-.71-.314-1.13-.872a2.35 2.35 0 0 1-.453-1.307h1.164q.036.457.313.79.278.328.725.508.448.18.993.18.609 0 1.08-.213.47-.212.739-.59a1.48 1.48 0 0 0 .268-.878q0-.522-.259-.918a1.7 1.7 0 0 0-.757-.628q-.499-.227-1.219-.227h-.757v-1.015h.757q.564 0 .988-.203.43-.203.67-.573.244-.369.244-.868a1.6 1.6 0 0 0-.212-.835 1.45 1.45 0 0 0-.6-.554 1.94 1.94 0 0 0-.905-.199q-.49 0-.923.18a1.7 1.7 0 0 0-.702.513q-.272.333-.296.803H9.453q.028-.743.448-1.302A2.8 2.8 0 0 1 11 69.73a3.55 3.55 0 0 1 1.5-.314q.878 0 1.505.356.628.35.965.928.337.577.337 1.246 0 .798-.42 1.362a2.13 2.13 0 0 1-1.131.78v.074q.895.147 1.399.762.503.61.503 1.51 0 .77-.42 1.384a2.85 2.85 0 0 1-1.136.96q-.72.351-1.639.351m6.117-2.714-.018-1.348h.221l3.103-3.158h1.348l-3.306 3.342h-.092zM17.565 79v-9.454h1.089V79zm4.505 0-2.77-3.508.776-.758L23.456 79zM3.767 17.182V5.364h.757v11.818zm2.548-8.273a1.45 1.45 0 0 0-.674-1.09q-.59-.387-1.45-.387-.627 0-1.098.203-.465.203-.73.559A1.34 1.34 0 0 0 2.106 9q0 .38.18.651.184.268.471.448.285.176.6.291.315.111.577.18l.96.258q.37.097.822.268.458.171.873.467.42.291.692.747.273.458.273 1.122 0 .767-.402 1.385-.398.619-1.163.984-.762.364-1.852.364-1.015 0-1.759-.328a2.8 2.8 0 0 1-1.163-.914 2.6 2.6 0 0 1-.475-1.361h1.18q.046.534.36.886.319.346.804.517.49.165 1.052.166.656 0 1.178-.212a2 2 0 0 0 .826-.6q.305-.388.305-.905 0-.471-.264-.767a1.9 1.9 0 0 0-.692-.48 7 7 0 0 0-.928-.323l-1.163-.332q-1.108-.32-1.755-.91-.645-.591-.646-1.546 0-.795.43-1.385.434-.596 1.163-.923a3.9 3.9 0 0 1 1.639-.333q.914 0 1.625.328.711.322 1.126.886.42.564.443 1.28zm2.732 5.152v-.942l4.155-6.574h.683v1.46h-.461l-3.14 4.967v.074h5.595v1.015zM13.497 16V6.546h1.09V16zm5.147-2.585-.019-1.348h.222l3.102-3.158h1.348l-3.305 3.342h-.093zM17.628 16V6.545h1.09V16zm4.506 0-2.77-3.508.775-.758L23.52 16zM3.767 144.182v-11.818h.757v11.818zm2.548-8.273a1.45 1.45 0 0 0-.674-1.089q-.59-.388-1.45-.388-.627 0-1.098.203-.465.203-.73.559a1.34 1.34 0 0 0-.258.807q0 .38.18.651.184.268.471.448.285.175.6.291a7 7 0 0 0 .577.18l.96.259q.37.096.822.267a3.8 3.8 0 0 1 .873.467q.42.29.692.747.273.458.273 1.122 0 .767-.402 1.385-.398.619-1.163.983-.762.365-1.852.365-1.015 0-1.759-.328a2.8 2.8 0 0 1-1.163-.914 2.6 2.6 0 0 1-.475-1.362H1.92q.046.536.36.887.319.346.804.517.49.166 1.052.166.656 0 1.178-.212.521-.218.826-.6.305-.389.305-.905 0-.471-.264-.767a1.9 1.9 0 0 0-.692-.48 7 7 0 0 0-.928-.323l-1.163-.332q-1.108-.32-1.755-.91-.645-.59-.646-1.546 0-.794.43-1.385.434-.596 1.163-.923a3.9 3.9 0 0 1 1.639-.333q.914 0 1.625.328.711.323 1.126.886.42.564.443 1.279zM9.27 143v-.831l3.12-3.416q.55-.6.905-1.043.356-.448.527-.841a2 2 0 0 0 .175-.831q0-.498-.24-.863a1.56 1.56 0 0 0-.646-.563 2.1 2.1 0 0 0-.924-.199q-.545 0-.95.227a1.55 1.55 0 0 0-.624.623 1.95 1.95 0 0 0-.217.942h-1.09q0-.831.384-1.459a2.66 2.66 0 0 1 1.043-.979q.664-.351 1.491-.351.831 0 1.473.351.642.35 1.006.946.365.596.365 1.325 0 .522-.19 1.021-.183.494-.646 1.103-.456.605-1.27 1.477l-2.123 2.272v.073h4.395V143zm8.905-2.585-.018-1.348h.221l3.102-3.158h1.348l-3.305 3.342h-.092zM17.158 143v-9.455h1.09V143zm4.506 0-2.77-3.509.776-.757L23.049 143zM3.767 208.182v-11.818h.757v11.818zm2.548-8.273a1.45 1.45 0 0 0-.674-1.089q-.59-.388-1.45-.388-.627 0-1.098.203-.465.203-.73.559a1.34 1.34 0 0 0-.258.807q0 .38.18.651.184.268.471.448.285.175.6.291a7 7 0 0 0 .577.18l.96.259q.37.096.822.267a3.8 3.8 0 0 1 .873.467q.42.29.692.747.273.458.273 1.122 0 .767-.402 1.385-.398.619-1.163.983-.762.366-1.852.365-1.015 0-1.759-.328a2.8 2.8 0 0 1-1.163-.914 2.6 2.6 0 0 1-.475-1.362H1.92q.046.536.36.887.319.346.804.517.49.166 1.052.166.656 0 1.178-.212.521-.218.826-.6.305-.389.305-.905 0-.471-.264-.767a1.9 1.9 0 0 0-.692-.48 7 7 0 0 0-.928-.323l-1.163-.332q-1.108-.32-1.755-.91-.645-.59-.646-1.546 0-.795.43-1.385.434-.596 1.163-.923a3.9 3.9 0 0 1 1.639-.333q.914 0 1.625.328.711.323 1.126.886.42.564.443 1.279zm6.278-2.364V207h-1.145v-8.254h-.056l-2.308 1.532v-1.163l2.364-1.57zm3.753 6.87-.019-1.348h.222l3.102-3.158H21l-3.305 3.342h-.092zM15.33 207v-9.455h1.09V207zm4.506 0-2.77-3.509.776-.757L21.22 207zM3.767 272.182v-11.818h.757v11.818zm2.548-8.273a1.45 1.45 0 0 0-.674-1.089q-.59-.388-1.45-.388-.627 0-1.098.203-.465.203-.73.559a1.34 1.34 0 0 0-.258.807q0 .38.18.651.184.268.471.448.285.175.6.291a7 7 0 0 0 .577.18l.96.259q.37.096.822.267a3.8 3.8 0 0 1 .873.467q.42.29.692.747.273.457.273 1.122 0 .767-.402 1.385-.398.619-1.163.983-.762.366-1.852.365-1.015 0-1.759-.328a2.8 2.8 0 0 1-1.163-.914 2.6 2.6 0 0 1-.475-1.362H1.92q.046.537.36.887.319.346.804.517.49.166 1.052.166.656 0 1.178-.212.521-.218.826-.6.305-.389.305-.905 0-.471-.264-.767a1.9 1.9 0 0 0-.692-.48 7 7 0 0 0-.928-.323l-1.163-.332q-1.108-.32-1.755-.91-.645-.59-.646-1.546 0-.794.43-1.385.434-.596 1.163-.923a3.9 3.9 0 0 1 1.639-.333q.914 0 1.625.328.711.323 1.126.886.42.564.443 1.279zm6.037 7.22q-1.042 0-1.777-.568-.734-.572-1.122-1.657-.387-1.089-.387-2.631 0-1.533.387-2.618.393-1.089 1.127-1.662.738-.576 1.772-.577 1.035 0 1.769.577.738.573 1.126 1.662.393 1.085.393 2.618 0 1.542-.388 2.631-.389 1.085-1.122 1.657-.735.568-1.778.568m0-1.015q1.034 0 1.607-.998.573-.996.572-2.843 0-1.228-.263-2.092-.258-.863-.748-1.315a1.65 1.65 0 0 0-1.168-.453q-1.025 0-1.601 1.011-.577 1.007-.577 2.849 0 1.227.258 2.086t.743 1.307q.49.447 1.177.448m38.412 21.431h1.145v6.759q0 .905-.332 1.537a2.25 2.25 0 0 1-.937.96q-.606.328-1.427.328-.776 0-1.38-.281a2.3 2.3 0 0 1-.951-.813q-.346-.526-.346-1.251h1.126q0 .402.198.702.204.296.554.461.35.167.8.167.492 0 .84-.208a1.32 1.32 0 0 0 .526-.609q.184-.406.184-.993zm5.378 9.621a2.9 2.9 0 0 1-1.223-.254 2.1 2.1 0 0 1-.872-.743q-.324-.489-.324-1.182 0-.609.24-.988.24-.382.642-.6t.887-.323q.49-.11.983-.175.646-.084 1.048-.125.405-.047.59-.152.19-.106.19-.37v-.037q0-.683-.374-1.061-.369-.38-1.122-.379-.78 0-1.223.342-.444.34-.623.729l-1.035-.369q.277-.647.74-1.007a2.8 2.8 0 0 1 1.015-.508q.554-.147 1.09-.147.341 0 .784.083.448.078.863.328.42.25.697.752.277.504.277 1.348V301h-1.09v-.96h-.054a2 2 0 0 1-.37.494 2.2 2.2 0 0 1-.688.448q-.429.184-1.048.184m.167-.978q.645 0 1.09-.254a1.73 1.73 0 0 0 .904-1.501v-.997q-.07.083-.305.152a5 5 0 0 1-.535.116 25 25 0 0 1-1.044.138 4 4 0 0 0-.794.18 1.4 1.4 0 0 0-.59.365q-.222.24-.222.656 0 .567.42.858.425.287 1.076.287m6.161-3.454V301h-1.09v-7.091h1.053v1.108h.093q.249-.54.757-.868.507-.332 1.311-.332.72 0 1.26.295.54.291.84.887.3.59.3 1.495V301h-1.089v-4.432q0-.836-.434-1.302-.435-.471-1.19-.471a1.9 1.9 0 0 0-.933.227q-.406.226-.642.66t-.236 1.052m13.477-5.189V301h-1.145v-8.254h-.055l-2.308 1.532v-1.163l2.363-1.57zm47.817 0h1.145v6.759q0 .905-.332 1.537a2.26 2.26 0 0 1-.937.96q-.605.328-1.427.328-.776 0-1.38-.281a2.3 2.3 0 0 1-.951-.813q-.346-.526-.346-1.251h1.126q0 .402.198.702.204.296.554.461.351.167.799.167.493 0 .84-.208a1.32 1.32 0 0 0 .527-.609q.184-.406.184-.993zm5.378 9.621a2.9 2.9 0 0 1-1.223-.254 2.1 2.1 0 0 1-.872-.743q-.324-.489-.324-1.182 0-.609.24-.988.24-.382.642-.6a3.4 3.4 0 0 1 .886-.323q.49-.11.984-.175.646-.084 1.048-.125.406-.047.591-.152.189-.106.189-.37v-.037q0-.683-.374-1.061-.369-.38-1.122-.379-.78 0-1.223.342-.443.34-.623.729l-1.035-.369q.277-.647.739-1.007.467-.364 1.016-.508a4.2 4.2 0 0 1 1.089-.147q.342 0 .785.083.448.078.863.328.42.25.697.752.277.504.277 1.348V301h-1.089v-.96h-.055a1.9 1.9 0 0 1-.37.494 2.1 2.1 0 0 1-.688.448q-.429.184-1.048.184m.167-.978q.646 0 1.089-.254a1.73 1.73 0 0 0 .905-1.501v-.997q-.07.083-.305.152a5 5 0 0 1-.535.116 25 25 0 0 1-1.044.138 4 4 0 0 0-.794.18q-.364.12-.591.365-.22.24-.221.656 0 .567.42.858.425.287 1.076.287m6.161-3.454V301h-1.089v-7.091h1.053v1.108h.092q.249-.54.757-.868.508-.332 1.311-.332.72 0 1.26.295a2 2 0 0 1 .841.887q.3.59.3 1.495V301h-1.09v-4.432q0-.836-.434-1.302-.433-.471-1.191-.471-.522 0-.932.227-.406.226-.642.66t-.236 1.052m13.182 4.395q-.95 0-1.681-.337a2.75 2.75 0 0 1-1.131-.937 2.34 2.34 0 0 1-.401-1.366 2.5 2.5 0 0 1 .891-1.962 2 2 0 0 1 .937-.439v-.055a1.83 1.83 0 0 1-1.081-.762 2.3 2.3 0 0 1-.397-1.343q-.004-.721.365-1.288a2.56 2.56 0 0 1 1.016-.896q.651-.328 1.482-.328.821 0 1.468.328.646.327 1.015.896.375.567.379 1.288a2.34 2.34 0 0 1-.411 1.343 1.82 1.82 0 0 1-1.066.762v.055q.512.093.923.439.41.34.655.854.246.508.25 1.108a2.4 2.4 0 0 1-.416 1.366 2.75 2.75 0 0 1-1.131.937q-.72.337-1.666.337m0-1.015q.641 0 1.108-.208.465-.208.72-.586.254-.379.258-.887a1.7 1.7 0 0 0-.277-.946 1.9 1.9 0 0 0-.743-.646 2.3 2.3 0 0 0-1.066-.236q-.606 0-1.081.236a1.9 1.9 0 0 0-.743.646 1.67 1.67 0 0 0-.263.946q-.005.508.245.887.254.378.724.586.471.207 1.118.208m0-4.488q.507 0 .9-.203.397-.202.623-.568.227-.364.231-.854a1.6 1.6 0 0 0-.226-.835 1.47 1.47 0 0 0-.614-.554 2 2 0 0 0-.914-.199q-.531 0-.928.199-.398.194-.614.554a1.54 1.54 0 0 0-.213.835q-.004.49.217.854.227.366.624.568.396.204.914.203m47.112-4.081h1.145v6.759q0 .905-.332 1.537a2.26 2.26 0 0 1-.937.96q-.605.328-1.427.328-.775 0-1.38-.281a2.3 2.3 0 0 1-.951-.813q-.346-.526-.346-1.251h1.126q0 .402.198.702.204.296.554.461.352.167.799.167.494 0 .84-.208a1.32 1.32 0 0 0 .527-.609q.184-.406.184-.993zm5.378 9.621a2.9 2.9 0 0 1-1.223-.254 2.1 2.1 0 0 1-.872-.743q-.324-.489-.324-1.182 0-.609.24-.988.24-.382.642-.6a3.4 3.4 0 0 1 .886-.323q.49-.11.984-.175.646-.084 1.048-.125.406-.047.591-.152.189-.106.189-.37v-.037q0-.683-.374-1.061-.369-.38-1.122-.379-.78 0-1.223.342-.443.34-.623.729l-1.035-.369q.277-.647.739-1.007.467-.364 1.016-.508a4.2 4.2 0 0 1 1.089-.147q.342 0 .785.083.448.078.863.328.42.25.697.752.277.504.277 1.348V301h-1.089v-.96h-.055a1.9 1.9 0 0 1-.37.494 2.1 2.1 0 0 1-.688.448q-.429.184-1.048.184m.167-.978q.646 0 1.089-.254a1.73 1.73 0 0 0 .905-1.501v-.997q-.07.083-.305.152a5 5 0 0 1-.535.116 25 25 0 0 1-1.044.138 4 4 0 0 0-.794.18q-.364.12-.591.365-.22.24-.221.656 0 .567.42.858.425.287 1.076.287m6.161-3.454V301h-1.089v-7.091h1.053v1.108h.092q.249-.54.757-.868.508-.332 1.311-.332.72 0 1.26.295a2 2 0 0 1 .841.887q.3.59.3 1.495V301h-1.09v-4.432q0-.836-.434-1.302-.433-.471-1.191-.471-.522 0-.932.227-.406.226-.642.66t-.236 1.052m13.477-5.189V301h-1.145v-8.254h-.055l-2.308 1.532v-1.163l2.363-1.57zm5.674 9.584a3.24 3.24 0 0 1-1.464-.323 2.7 2.7 0 0 1-1.043-.886 2.4 2.4 0 0 1-.429-1.284h1.108q.065.642.581 1.062.522.416 1.247.416.582 0 1.034-.273.457-.272.715-.748a2.2 2.2 0 0 0 .264-1.084 2.2 2.2 0 0 0-.273-1.104 2 2 0 0 0-.738-.771 2.1 2.1 0 0 0-1.076-.286 3 3 0 0 0-.891.134 2.5 2.5 0 0 0-.753.346l-1.071-.129.573-4.654h4.912v1.016h-3.952l-.332 2.788h.055a2.5 2.5 0 0 1 .729-.383q.44-.152.915-.152a2.9 2.9 0 0 1 1.546.415q.684.411 1.071 1.127.392.716.392 1.634 0 .905-.406 1.616a2.97 2.97 0 0 1-1.108 1.117q-.706.406-1.606.406m41.143-9.584h1.145v6.759q0 .905-.332 1.537a2.26 2.26 0 0 1-.937.96q-.606.328-1.427.328-.776 0-1.38-.281a2.3 2.3 0 0 1-.951-.813q-.346-.526-.346-1.251h1.126q0 .402.198.702.204.296.554.461.351.167.799.167.493 0 .84-.208a1.32 1.32 0 0 0 .527-.609q.184-.406.184-.993zm5.378 9.621a2.9 2.9 0 0 1-1.223-.254 2.1 2.1 0 0 1-.872-.743q-.324-.489-.324-1.182 0-.609.24-.988.24-.382.642-.6a3.4 3.4 0 0 1 .886-.323q.49-.11.984-.175.646-.084 1.048-.125.407-.047.591-.152.189-.106.189-.37v-.037q0-.683-.374-1.061-.369-.38-1.122-.379-.78 0-1.223.342-.444.34-.623.729l-1.035-.369q.277-.647.739-1.007.467-.364 1.016-.508a4.2 4.2 0 0 1 1.089-.147q.342 0 .785.083.448.078.863.328.42.25.697.752.277.504.277 1.348V301h-1.089v-.96h-.055a1.9 1.9 0 0 1-.37.494 2.1 2.1 0 0 1-.688.448q-.429.184-1.048.184m.167-.978q.646 0 1.089-.254a1.73 1.73 0 0 0 .905-1.501v-.997q-.07.083-.305.152a5 5 0 0 1-.535.116 25 25 0 0 1-1.044.138 4 4 0 0 0-.794.18q-.365.12-.591.365-.22.24-.221.656 0 .567.42.858.425.287 1.076.287m6.161-3.454V301h-1.089v-7.091h1.053v1.108h.092q.249-.54.757-.868.508-.332 1.311-.332.72 0 1.26.295a2 2 0 0 1 .841.887q.3.59.3 1.495V301h-1.09v-4.432q0-.836-.434-1.302-.433-.471-1.191-.471-.522 0-.932.227-.406.226-.642.66t-.236 1.052M289.623 301v-.831l3.121-3.416q.55-.6.905-1.043a4 4 0 0 0 .526-.841q.175-.396.175-.831 0-.498-.24-.863a1.55 1.55 0 0 0-.646-.563 2.1 2.1 0 0 0-.923-.199q-.545 0-.951.227a1.54 1.54 0 0 0-.623.623 1.95 1.95 0 0 0-.217.942h-1.09q0-.831.383-1.459a2.67 2.67 0 0 1 1.044-.979q.664-.351 1.491-.351.831 0 1.472.351.642.35 1.007.946t.365 1.325q0 .522-.19 1.021-.184.494-.646 1.103-.457.605-1.27 1.477l-2.123 2.272v.073h4.395V301zm7.871 0v-.831l3.121-3.416q.55-.6.905-1.043a4 4 0 0 0 .526-.841 2 2 0 0 0 .176-.831q0-.498-.24-.863a1.56 1.56 0 0 0-.647-.563 2.1 2.1 0 0 0-.923-.199q-.545 0-.951.227a1.54 1.54 0 0 0-.623.623 1.95 1.95 0 0 0-.217.942h-1.09q0-.831.383-1.459a2.67 2.67 0 0 1 1.044-.979q.664-.351 1.491-.351.831 0 1.473.351.641.35 1.006.946t.365 1.325q0 .522-.19 1.021-.184.494-.646 1.103-.458.605-1.269 1.477l-2.124 2.272v.073h4.395V301z"/><path stroke="#EAEDF4" d="M46.5 11v255m144-255v255m-72-255v255m216-256v255m-72-254v255m-216.5.5h289m-289-64h289m-289-64h289m-289-64h289m-289-64h289" opacity=".75"/><path fill="url(#a)" d="M133.55 165.197c-26.287 0-40.011-34.537-66.297-34.537-6.53 0-13.17 7.411-20.253 15.968V266h288V101.458c-8.142 12.355-24.666 95.305-51.177 92.66-28.147-2.808-36.818-44.926-53.503-44.926-17.214 0-27.449-54.192-50.711-54.192s-31.637 70.197-46.059 70.197"/><g filter="url(#b)"><path stroke="#00ADB5" stroke-opacity=".46" stroke-width="2" d="M335 104.678c-8.128 12.382-24.624 95.51-51.09 92.86-28.1-2.814-36.757-45.023-53.413-45.023-17.185 0-27.403-54.309-50.626-54.309s-31.583 70.349-45.982 70.349c-26.241 0-39.943-34.612-66.185-34.612-6.36 0-12.826 7.071-19.704 15.38"/></g><path stroke="#00ADB5" stroke-width="2" d="M335 101.472c-8.134 12.381-24.641 95.51-51.126 92.86-28.119-2.814-36.782-45.023-53.45-45.023-17.197 0-27.422-54.309-50.661-54.309s-31.606 70.348-46.014 70.348c-26.26 0-39.971-34.611-66.231-34.611-6.611 0-13.335 7.627-20.518 16.348"/><circle cx="193" cy="100" r="4" fill="#fff" stroke="#00ADB5" stroke-width="2"/><g filter="url(#c)"><path fill="#fff" d="M135 14a2 2 0 0 1 2-2h112a2 2 0 0 1 2 2v60.167a2 2 0 0 1-2 2h-45.023c-.616 0-1.199.284-1.578.77l-7.821 10.038a2 2 0 0 1-3.156 0l-7.821-10.038a2 2 0 0 0-1.578-.77H137a2 2 0 0 1-2-2z"/></g><path fill="#0F1B2D" d="M149.416 38.364V24.727h.873v13.637zm2.732-9.407a1.55 1.55 0 0 0-.703-1.172q-.618-.42-1.555-.421-.672 0-1.161.213-.49.208-.762.575a1.36 1.36 0 0 0-.266.826q0 .39.181.671.187.282.484.474.305.187.65.314.347.123.666.203l1.066.277q.522.127 1.07.346.549.219 1.018.575.468.357.756.885.293.527.293 1.262 0 .927-.479 1.646-.475.72-1.38 1.135-.9.415-2.179.415-1.224 0-2.12-.389-.894-.388-1.401-1.102-.505-.72-.559-1.705h1.651q.048.591.384.986.341.388.868.58a3.5 3.5 0 0 0 1.167.187q.698 0 1.241-.219a2.1 2.1 0 0 0 .863-.618q.314-.4.314-.932 0-.485-.277-.794a2.05 2.05 0 0 0-.74-.51 7 7 0 0 0-1.05-.358l-1.289-.351q-1.31-.357-2.077-1.05-.762-.692-.762-1.832 0-.943.511-1.646.512-.703 1.385-1.092.874-.394 1.971-.394 1.108 0 1.955.389.852.389 1.342 1.07.49.677.512 1.556zM155.703 37v-1.193l3.691-3.825q.591-.623.975-1.092.389-.474.58-.9a2.2 2.2 0 0 0 .192-.905q0-.544-.255-.938a1.67 1.67 0 0 0-.698-.613 2.2 2.2 0 0 0-.996-.218q-.587 0-1.023.24-.437.24-.671.676a2.1 2.1 0 0 0-.235 1.023h-1.571q0-.996.458-1.742a3.1 3.1 0 0 1 1.257-1.156q.799-.415 1.817-.415 1.028 0 1.811.41.787.406 1.23 1.108.442.697.442 1.577 0 .606-.229 1.187-.224.58-.783 1.295-.56.709-1.555 1.72l-2.168 2.27v.08h4.911V37zm11.292-1.492-.08.581q-.08.639-.271 1.332-.187.698-.389 1.294-.198.597-.325.948h-1.129l.191-.894q.123-.56.24-1.252.117-.693.176-1.412l.053-.596zm5.653 1.641q-1 0-1.8-.383a3.3 3.3 0 0 1-1.268-1.066 2.8 2.8 0 0 1-.506-1.544h1.598a1.6 1.6 0 0 0 .623 1.155q.565.453 1.353.453.628 0 1.114-.287.49-.294.767-.805.282-.511.282-1.166 0-.666-.288-1.188a2.13 2.13 0 0 0-.793-.82 2.25 2.25 0 0 0-1.151-.304q-.495 0-.996.17a2.3 2.3 0 0 0-.81.448l-1.507-.224.612-5.497h5.998v1.412h-4.629l-.346 3.052h.064q.32-.309.847-.517a3.1 3.1 0 0 1 1.14-.208q.996 0 1.774.474.783.474 1.23 1.295.453.815.448 1.875.005 1.06-.48 1.89-.479.832-1.331 1.311-.847.474-1.945.474m9.329-11.207a4.2 4.2 0 0 1 1.438.266 3.4 3.4 0 0 1 1.278.852q.576.592.916 1.598.346 1.002.352 2.493 0 1.433-.288 2.552-.287 1.113-.825 1.88a3.6 3.6 0 0 1-1.295 1.167q-.76.4-1.715.4-.975 0-1.731-.384a3.3 3.3 0 0 1-1.23-1.06 3.5 3.5 0 0 1-.592-1.566h1.625q.16.702.65 1.14.495.43 1.278.43 1.198 0 1.87-1.043.671-1.05.676-2.93h-.085a3 3 0 0 1-.692.789q-.41.33-.922.51-.512.183-1.092.182a3.27 3.27 0 0 1-1.715-.463 3.4 3.4 0 0 1-1.231-1.274q-.458-.81-.458-1.848 0-1.033.469-1.875a3.5 3.5 0 0 1 1.321-1.331q.852-.495 1.998-.485m.005 1.385q-.624 0-1.124.309-.495.303-.783.825a2.3 2.3 0 0 0-.288 1.15q0 .635.277 1.151.283.512.767.815.49.3 1.119.299.47 0 .874-.181t.708-.501q.303-.325.474-.735a2.2 2.2 0 0 0 .171-.863 2.26 2.26 0 0 0-.288-1.119 2.24 2.24 0 0 0-.778-.83 2.04 2.04 0 0 0-1.129-.32m9.589 9.822q-1.145 0-2.024-.394-.873-.394-1.369-1.087a2.62 2.62 0 0 1-.49-1.576 2.78 2.78 0 0 1 1.076-2.248 2.46 2.46 0 0 1 1.119-.501v-.064a2.2 2.2 0 0 1-1.305-.873 2.55 2.55 0 0 1-.485-1.556 2.55 2.55 0 0 1 .442-1.491q.453-.66 1.241-1.039.789-.378 1.795-.378.996 0 1.779.383.789.378 1.242 1.039.452.655.458 1.486a2.6 2.6 0 0 1-.501 1.555q-.495.677-1.289.874v.064a2.4 2.4 0 0 1 1.103.5q.495.39.788.976.298.58.304 1.273a2.68 2.68 0 0 1-.501 1.576q-.496.693-1.374 1.087-.874.394-2.009.394m0-1.348q.677 0 1.172-.223.496-.23.767-.634.272-.41.277-.959a1.8 1.8 0 0 0-.298-1.007 2 2 0 0 0-.783-.687 2.5 2.5 0 0 0-1.135-.25q-.644 0-1.145.25a2 2 0 0 0-.788.687 1.76 1.76 0 0 0-.283 1.007q-.004.549.261.959.272.405.773.634.501.223 1.182.223m0-5.076q.544 0 .965-.218t.66-.608q.245-.388.25-.91a1.7 1.7 0 0 0-.245-.895 1.55 1.55 0 0 0-.655-.591 2.1 2.1 0 0 0-.975-.214q-.564 0-.99.213a1.56 1.56 0 0 0-.656.592 1.65 1.65 0 0 0-.229.895 1.67 1.67 0 0 0 .235.91q.24.39.66.608.426.218.98.218"/><path fill="#545F7A" d="M149.764 52.546h1.145v6.758q0 .905-.332 1.537a2.26 2.26 0 0 1-.937.96q-.605.328-1.427.328-.775 0-1.38-.281a2.3 2.3 0 0 1-.951-.813q-.346-.526-.346-1.25h1.126q0 .4.198.7.204.297.554.462.352.167.799.167.494 0 .84-.208.347-.208.527-.61.184-.405.184-.992zm5.378 9.62a2.9 2.9 0 0 1-1.223-.254 2.1 2.1 0 0 1-.872-.743q-.324-.489-.324-1.182 0-.609.24-.988.24-.383.642-.6t.886-.323a11 11 0 0 1 .984-.175q.646-.084 1.048-.125.406-.046.591-.152.189-.106.189-.37v-.037q0-.684-.374-1.061-.369-.38-1.122-.379-.78 0-1.223.342-.443.34-.623.729l-1.035-.37q.277-.645.739-1.006.467-.364 1.016-.508a4.2 4.2 0 0 1 1.089-.147q.342 0 .785.083.448.078.863.328.42.25.697.752.277.504.277 1.348V62h-1.089v-.96h-.055a1.9 1.9 0 0 1-.37.494 2.1 2.1 0 0 1-.688.447q-.429.186-1.048.185m.167-.978q.646 0 1.089-.254a1.73 1.73 0 0 0 .905-1.5v-.998q-.07.084-.305.152a5 5 0 0 1-.535.116 24 24 0 0 1-1.044.138 4 4 0 0 0-.794.18q-.364.12-.591.365-.22.24-.221.656 0 .567.42.858.425.286 1.076.286m6.161-3.454V62h-1.089v-7.09h1.053v1.107h.092q.249-.54.757-.868.508-.332 1.311-.332.72 0 1.26.295.54.291.841.887.3.59.3 1.495V62h-1.09v-4.432q0-.835-.434-1.302-.433-.47-1.191-.47-.522 0-.932.226-.406.225-.642.66-.236.434-.236 1.052m13.477-5.189V62h-1.145v-8.254h-.055l-2.308 1.532v-1.163l2.363-1.57zm5.858 9.584a3.5 3.5 0 0 1-1.163-.221 2.8 2.8 0 0 1-1.062-.716q-.48-.507-.771-1.371-.291-.868-.291-2.179 0-1.256.236-2.225.236-.975.683-1.639a3.1 3.1 0 0 1 1.08-1.016 2.96 2.96 0 0 1 1.436-.346q.794 0 1.413.319.623.313 1.015.877.393.563.508 1.297h-1.126a2.1 2.1 0 0 0-.61-1.057q-.451-.42-1.2-.42-1.098 0-1.731.955-.628.957-.633 2.683h.074a2.8 2.8 0 0 1 1.408-1.104q.435-.152.919-.152.813 0 1.487.406.673.402 1.08 1.113.406.705.406 1.62 0 .877-.392 1.607-.393.725-1.104 1.154-.706.424-1.662.415m0-1.015q.582 0 1.044-.291.466-.291.734-.78.272-.49.272-1.09 0-.586-.263-1.066a2 2 0 0 0-.716-.771 1.9 1.9 0 0 0-1.034-.286q-.438 0-.817.175-.378.17-.665.47-.28.3-.443.689a2.18 2.18 0 0 0 .831 2.65q.466.3 1.057.3m6.173-.407-.074.499q-.08.525-.24 1.126-.157.6-.328 1.131a33 33 0 0 1-.282.845h-.831l.157-.78q.098-.485.194-1.085a19 19 0 0 0 .166-1.219l.056-.517zM192.634 62v-.831l3.121-3.416q.55-.6.905-1.044.355-.447.526-.84.175-.396.175-.83 0-.499-.24-.864a1.56 1.56 0 0 0-.646-.563 2.1 2.1 0 0 0-.923-.199q-.546 0-.951.227a1.56 1.56 0 0 0-.624.623 1.96 1.96 0 0 0-.217.942h-1.089q0-.83.383-1.46a2.67 2.67 0 0 1 1.043-.978 3.15 3.15 0 0 1 1.492-.35q.83 0 1.472.35.641.352 1.007.946.364.596.364 1.325 0 .522-.189 1.02-.185.495-.646 1.104-.457.604-1.27 1.477l-2.123 2.271v.074h4.394V62zm10.955.13q-1.044 0-1.777-.569-.735-.572-1.122-1.657-.388-1.089-.388-2.631 0-1.533.388-2.618.392-1.089 1.126-1.662.739-.577 1.773-.577t1.768.577q.739.573 1.126 1.662.393 1.085.393 2.618 0 1.542-.388 2.631-.388 1.085-1.122 1.657-.734.568-1.777.568m0-1.016q1.034 0 1.606-.997.573-.998.573-2.844 0-1.228-.263-2.092-.26-.863-.748-1.315a1.65 1.65 0 0 0-1.168-.453q-1.024 0-1.602 1.011-.577 1.006-.577 2.849 0 1.228.258 2.086.26.859.744 1.307a1.68 1.68 0 0 0 1.177.448m5.041.886v-.831l3.121-3.416q.55-.6.905-1.044.355-.447.526-.84.175-.396.175-.83 0-.499-.24-.864a1.56 1.56 0 0 0-.646-.563 2.1 2.1 0 0 0-.923-.199q-.544 0-.951.227a1.56 1.56 0 0 0-.624.623 1.96 1.96 0 0 0-.217.942h-1.089q0-.83.383-1.46a2.67 2.67 0 0 1 1.043-.978 3.15 3.15 0 0 1 1.492-.35q.83 0 1.472.35.642.352 1.007.946.364.596.364 1.325 0 .522-.189 1.02-.184.495-.646 1.104-.457.604-1.27 1.477L210.2 60.91v.074h4.395V62zm10.955.13q-1.044 0-1.777-.569-.735-.572-1.122-1.657-.388-1.089-.388-2.631 0-1.533.388-2.618.392-1.089 1.126-1.662.74-.577 1.773-.577 1.034 0 1.768.577.738.573 1.126 1.662.393 1.085.393 2.618 0 1.542-.388 2.631-.387 1.085-1.122 1.657-.733.568-1.777.568m0-1.016q1.034 0 1.606-.997.573-.998.573-2.844 0-1.228-.263-2.092-.26-.863-.748-1.315a1.65 1.65 0 0 0-1.168-.453q-1.025 0-1.602 1.011-.577 1.006-.577 2.849 0 1.228.259 2.086.258.859.743 1.307a1.68 1.68 0 0 0 1.177.448"/><defs><filter id="b" width="320.606" height="133.394" x="31.23" y="81.206" color-interpolation-filters="sRGB" filterUnits="userSpaceOnUse"><feFlood flood-opacity="0" result="BackgroundImageFix"/><feBlend in="SourceGraphic" in2="BackgroundImageFix" result="shape"/><feGaussianBlur result="effect1_foregroundBlur_1_776" stdDeviation="8"/></filter><filter id="c" width="148" height="107.746" x="121" y="0" color-interpolation-filters="sRGB" filterUnits="userSpaceOnUse"><feFlood flood-opacity="0" result="BackgroundImageFix"/><feColorMatrix in="SourceAlpha" result="hardAlpha" values="0 0 0 0 0 0 0 0 0 0 0 0 0 0 0 0 0 0 127 0"/><feOffset dx="2" dy="4"/><feGaussianBlur stdDeviation="8"/><feColorMatrix values="0 0 0 0 0.615686 0 0 0 0 0.654902 0 0 0 0 0.745098 0 0 0 0.24 0"/><feBlend in2="BackgroundImageFix" result="effect1_dropShadow_1_776"/><feBlend in="SourceGraphic" in2="effect1_dropShadow_1_776" result="shape"/></filter><linearGradient id="a" x1="111.916" x2="111.916" y1="95" y2="266" gradientUnits="userSpaceOnUse"><stop stop-color="#00ADB5" stop-opacity=".11"/><stop offset=".453" stop-color="#00ADB5" stop-opacity=".06"/><stop offset=".917" stop-color="#00ADB5" stop-opacity="0"/></linearGradient></defs></svg>