<svg xmlns="http://www.w3.org/2000/svg" width="299" height="317" fill="none"><path fill="url(#a)" d="m256.377 123.256.289-4.425a.3.3 0 0 0-.112-.25l-3.48-2.746a.294.294 0 0 1 .11-.516l4.296-1.094a.3.3 0 0 0 .204-.183l1.537-4.16a.294.294 0 0 1 .525-.055l2.366 3.748a.3.3 0 0 0 .237.137l4.43.175c.243.01.371.295.214.483l-2.834 3.41a.3.3 0 0 0-.057.268l1.201 4.268a.294.294 0 0 1-.392.354l-4.118-1.642a.29.29 0 0 0-.272.029l-3.688 2.463a.294.294 0 0 1-.456-.264"/><path fill="url(#b)" d="m52.681 46.067.29-4.425a.3.3 0 0 0-.112-.25l-3.48-2.746a.295.295 0 0 1 .11-.517l4.296-1.093a.3.3 0 0 0 .204-.183l1.536-4.16a.294.294 0 0 1 .525-.055l2.367 3.748c.051.082.14.133.237.137l4.43.175c.243.01.37.295.214.483l-2.834 3.41a.3.3 0 0 0-.057.268l1.201 4.268a.295.295 0 0 1-.393.353l-4.117-1.64a.3.3 0 0 0-.273.028l-3.687 2.462a.294.294 0 0 1-.457-.263"/><g filter="url(#c)"><circle cx="110.39" cy="88.812" r="6" fill="url(#d)" transform="rotate(-150 110.39 88.812)"/></g><circle cx="117.204" cy="35.011" r="5" fill="url(#e)" transform="rotate(-150 117.204 35.01)"/><circle cx="132.502" cy="93.983" r="1.897" fill="url(#f)" transform="rotate(-150 132.502 93.983)"/><circle cx="129.903" cy="141.222" r="1.897" fill="url(#g)" transform="rotate(-150 129.903 141.222)"/><circle cx="87.42" cy="85.564" r="1.897" fill="url(#h)" transform="rotate(-150 87.42 85.564)"/><circle cx="40.995" cy="97.201" r="1.897" fill="url(#i)" transform="rotate(-150 40.995 97.201)"/><circle cx="161.128" cy="66.801" r="1.897" fill="url(#j)" transform="rotate(-150 161.128 66.801)"/><circle cx="80.859" cy="39.649" r="1.897" fill="url(#k)" transform="rotate(-150 80.859 39.649)"/><circle cx="107.25" cy="57.075" r="1.897" fill="url(#l)" transform="rotate(-150 107.25 57.075)"/><circle cx="150.649" cy="101.495" r="1.897" fill="url(#m)" transform="rotate(-150 150.649 101.495)"/><circle cx="99.497" cy="126.596" r="1.897" fill="url(#n)" transform="rotate(-150 99.497 126.596)"/><path fill="#DDDEEA" fill-rule="evenodd" d="m143.911 259.476-123.62 4.317s-59.89 45.22 66.647 46.843c126.536 1.622 184.215-6.433 184.215-6.433s68.886-25.827-39.29-38.162-87.952-6.565-87.952-6.565" clip-rule="evenodd" opacity=".4"/><path fill="#E5D1BD" fill-rule="evenodd" d="M259.08 142.681a2 2 0 0 0-.29-.018c-.903.026-1.296.845-2.062 1.088-.343.109-1.335-.302-1.371.295-.012.22-.115.959-.172 1.706-.268.562-.51 1.138-.829 1.673-.805 1.354-4.092 3.259-2.937 5.088.223.353.453.715.786.968.271.207.597.33.92.435.254.082.635.273.865.155.242-.124.522-.752.682-.982l1.37-1.971c.446-.644 1.035-1.361 1.814-1.318.172.009.34.057.512.043.192-.016.369-.109.537-.204.615-.35 1.217-.758 1.737-1.244.929-.869.615-2.842.519-3.959-.024-.279-.057-.566-.199-.806-.229-.391-.687-.572-1.111-.726a4 4 0 0 0-.771-.223" clip-rule="evenodd"/><path fill="url(#o)" fill-rule="evenodd" d="M242.375 166.657c.982-.199 1.978-.403 2.873-.856.713-.361 1.341-.871 1.949-1.391a48 48 0 0 0 9.648-11.286 17.7 17.7 0 0 0-5.469-4.306 76.6 76.6 0 0 1-9.275 7.963c-.674.491-1.365.976-2.145 1.269-1.123.423-2.353.419-3.553.411l-13.951-.1c-2.806-.02-5.714-.019-8.271 1.141-7.092 3.217-4.105 12.644 3.146 12.309 8.142-.375 17.036-3.531 25.048-5.154" clip-rule="evenodd"/><path fill="#F6D738" fill-rule="evenodd" d="M168.297 109.871c1.379-28.213 25.244-49.96 53.305-48.574 28.06 1.386 49.689 25.382 48.312 53.595-1.38 28.213-25.245 49.961-53.306 48.575-28.06-1.387-49.69-25.382-48.311-53.596" clip-rule="evenodd"/><path fill="#F3CC30" fill-rule="evenodd" d="M175.985 110.251c1.17-23.944 21.424-42.401 45.239-41.225s42.172 21.542 41.001 45.486c-1.169 23.944-21.424 42.401-45.239 41.225s-42.172-21.541-41.001-45.486" clip-rule="evenodd"/><path fill="#EDBD31" fill-rule="evenodd" d="M243.473 76.492c3.965 6.953 6.063 15.09 5.643 23.689-1.17 23.944-21.424 42.401-45.239 41.225a42.8 42.8 0 0 1-22.247-7.518c7.075 12.408 20.096 21.043 35.359 21.798 23.814 1.176 44.069-17.281 45.238-41.225.764-15.629-6.793-29.73-18.754-37.969" clip-rule="evenodd"/><path fill="#F7DB5E" fill-rule="evenodd" d="M183.344 114.591c1.033-21.136 18.913-37.43 39.935-36.39 12.288.607 22.927 7.002 29.444 16.432-6.013-11.797-17.955-20.13-32.069-20.827-21.023-1.039-38.902 15.254-39.935 36.39a38.3 38.3 0 0 0 6.751 23.72 38.3 38.3 0 0 1-4.126-19.325" clip-rule="evenodd"/><path fill="#D49A34" fill-rule="evenodd" d="m224.032 84.574-.27 5.524q3.281.7 5.302 2.465 2.02 1.767 3.759 5.299l-5.616 2.802q-2.246-4.631-6.226-4.828-2.466-.122-4.163 1.263-1.698 1.386-1.805 3.583-.098 2.002 1.155 3.391 1.225 1.36 5.062 3.329 3.316 1.718 5.464 3.193 2.147 1.477 3.206 2.8 2.999 3.595 2.761 8.47-.234 4.791-3.272 8.313-3.009 3.495-7.807 4.529l-.285 5.833-4.905-.242.277-5.664q-5.45-1.174-8.195-4.218t-3.822-9.172l6.23-.992q1.052 4.347 2.784 6.267 1.82 1.842 4.987 1.998 3.083.153 5.255-1.746 2.142-1.871 2.296-4.999.136-2.79-1.491-4.565-.83-.86-2.475-1.973-1.646-1.111-4.22-2.454-5.318-2.72-6.927-4.862-2.568-3.205-2.359-7.489.099-2.028.829-3.745a10.4 10.4 0 0 1 2.019-3.078q1.288-1.362 3.133-2.317 1.845-.954 4.144-1.433l.27-5.524z" clip-rule="evenodd"/><path fill="#E5D1BD" fill-rule="evenodd" d="M149.18 250.098c.103.917.435 1.764.649 2.649 3.132-.298 6.104-.734 9.139-1.718-1.384-1.197-.804-2.71-3.474-2.486-.864.073-4.914 1.567-6.314 1.555" clip-rule="evenodd"/><path fill="#4D4D4D" fill-rule="evenodd" d="M151.585 252.769c.182.549-.019.918-.305 1.345-.166.248-.425.437-.529.722-.103.284-.093.546-.078.864.076 1.672.701 5.457-2.336 3.841-2.757-1.468-2.481-6.491-2.218-9.408.017-.192.016-.392.139-.548s.312-.279.514-.368c1.124-.495 2.522-1.151 3.225.224.299.586-.024 1.215.297 1.835.263.509 1.108.944 1.291 1.493" clip-rule="evenodd"/><path fill="url(#p)" fill-rule="evenodd" d="M210.392 232.11q.895.451 1.806.902c4.649 2.309 9.37 4.655 10.564 7.617.833 2.068 3.576 17.364 3.993 28.133.016.392-.068 1.106-.155 1.845-.083.713-.169 1.449-.173 1.948 1.728.498 3.33.559 5.06.624.652.025 1.322.05 2.024.1 1.873-12.41 3.816-34.141 3.816-34.141-1.819-7.779-8.628-16.376-14.841-24.222-2.456-3.101-4.819-6.084-6.744-8.854q-.163-.235-.333-.484c-1.054-1.546-2.305-3.38-4.13-3.626-1.55-.209-2.774.342-4.167 1.253-1.006.658-2.56 1.421-4.31 2.28-2.924 1.436-6.395 3.14-8.766 5.069-2.264 1.104-4.155 2.377-5.158 3.689-1.85 2.42-1.722 6.115-1.6 9.642.127 3.656.248 7.131-1.847 8.815-7.462 6.002-16.845 9.392-25.493 12.516-1.328.48-2.638.953-3.922 1.429-.363.135-1.072.285-1.796.439-.647.138-1.307.278-1.746.412.13 2.139.658 4.008 1.242 6.076l.241.858c1.811-.208 3.806-.425 5.911-.653 11.273-1.223 25.667-2.784 31.476-5.217 6.614-2.77 13.046-9.846 19.048-16.45" clip-rule="evenodd"/><path fill="#E5D1BD" fill-rule="evenodd" d="M227.703 276.67c.928.192 1.862.098 2.791.2.745-3.253 1.333-6.443 1.374-9.829-1.631 1.075-2.867.065-3.493 2.832-.203.895-.156 5.396-.672 6.797" clip-rule="evenodd"/><path fill="#4D4D4D" fill-rule="evenodd" d="M231.082 275.133c.581.001.87.341 1.191.741.186.232.277.561.495.766s.478.267.787.344c1.631.406 5.436.987 2.953 3.418-2.255 2.207-6.935.4-9.644-.742-.178-.075-.374-.138-.491-.303s-.168-.391-.194-.61c-.144-1.219-.341-2.833 1.184-3.092.65-.11 1.195.396 1.891.271.571-.102 1.247-.793 1.828-.793" clip-rule="evenodd"/><path fill="url(#q)" fill-rule="evenodd" d="M204.781 159.56c-.804.582-1.588 1.178-2.356 1.757-3.109 2.343-6.289 4.766-8.643 7.915-2.19 2.929-2.765 6.592-3.839 10.041-2.994 9.621-3.511 19.775-4.898 29.699-.27 1.935-.581 3.889-1.347 5.685s-2.041 3.443-3.799 4.275c-1.703.806-3.718.796-5.367 1.708.25-.138 2.961 1.764 3.361 1.97 1.23.634 2.244.952 3.578 1.156 2.879.442 5.864.796 8.709-.043 3.152-.929 5.713-3.196 8.603-4.766a21 21 0 0 1 9.605-2.531c5.996-.104 12.215 2.337 17.831.224-1.189.448-2.88-8.919-3.02-9.763-.616-3.709-.144-7.584.186-11.344.61-6.955.929-13.943 1.498-20.882.408-4.97 1.436-8.861-1.936-13.06-1.836-2.286-5.201-6.255-8.244-6.201-3.705.065-6.951 2.01-9.922 4.16" clip-rule="evenodd"/><path fill="#EFBFA5" fill-rule="evenodd" d="M223.295 153.878c-1.124 1.069-2.54 1.765-3.819 2.64-1.245.852-1.948 1.795-2.698 3.065-.543.917-1.197 1.539-2.436 1.23-2.335-.584-.965-2.161-.929-3.7.041-1.759-.697-3.462-1.003-5.172-.885-4.939 2.951-12.43 8.751-12.001 6.342.47 5.548 10.695 2.134 13.938" clip-rule="evenodd"/><path fill="#534741" fill-rule="evenodd" d="M215.745 145.368c-.636.412-.986 1.304-.633 1.977.188.36.537.61.754.954.634 1.009-.104 2.351-1.033 3.094-.93.744-2.096 1.257-2.722 2.271-3.162-2.575-5.582-6.307-5.802-10.393-.16-2.948 1.007-6.02 3.191-8.017 2.563-2.343 5.155-2.214 8.49-2.5 1.373-.118 2.786-.232 4.104.17 2.028.62 3.841 1.291 6.042 1.288 1.31-.001 2.659-.319 3.689-1.134.84-.665 1.409-1.606 2.107-2.42s1.637-1.544 2.705-1.528c.078.639.143 1.338-.208 1.876-.182.279-.46.484-.64.763-.694 1.076.34 2.584-.162 3.763-.357.842-1.354 1.192-1.947 1.887-.519.608-.692 1.433-1.048 2.15-1.181 2.37-4.651 5.064-6.772 6.495.639-.431-1.573-2.909-2.076-3.018-1.19-.257-3.075 1.102-4.293 1.394-1.174.282-2.707.254-3.746.928" clip-rule="evenodd"/><path fill="#E5D1BD" fill-rule="evenodd" d="M245.532 197.021a2 2 0 0 0-.101-.272c-.389-.822-1.292-.852-1.823-1.459-.237-.27-.264-1.348-.822-1.141-.205.078-.918.281-1.621.53-.62-.018-1.242-.008-1.857-.084-1.557-.194-4.619-2.449-5.816-.648-.231.349-.467.707-.563 1.115-.079.333-.06.681-.024 1.022.027.265.008.693.208.858.211.173.895.176 1.169.23l2.346.463c.767.152 1.657.402 1.933 1.138.061.16.086.335.167.486.092.171.248.296.403.412.566.425 1.181.814 1.833 1.096 1.166.503 2.835-.582 3.813-1.121.243-.135.491-.282.652-.509.263-.369.243-.863.212-1.316-.019-.269-.038-.542-.109-.8" clip-rule="evenodd"/><path fill="url(#r)" fill-rule="evenodd" d="M216.97 191.342c.578.823 1.166 1.657 1.94 2.297.616.51 1.333.881 2.053 1.23a47.6 47.6 0 0 0 14.165 4.315 17.9 17.9 0 0 0 1.708-6.768 76.6 76.6 0 0 1-10.991-5.315c-.719-.421-1.44-.861-2.021-1.46-.838-.863-1.332-1.996-1.809-3.102l-5.545-12.873c-1.115-2.589-2.29-5.263-4.378-7.147-5.792-5.223-13.162 1.333-9.929 7.867 3.631 7.337 10.094 14.242 14.807 20.956" clip-rule="evenodd"/><path fill="#404C65" fill-rule="evenodd" d="M40.965 284.131H33.23v-14.812H48.7v6.682zm82.651-.339h7.735v-14.813h-15.47v6.682z" clip-rule="evenodd"/><path fill="url(#s)" fill-rule="evenodd" d="M134.496 274.625H28.98c-2.729 0-4.94-2.224-4.94-4.968V152.664c0-2.744 2.211-4.969 4.94-4.969h105.516c2.729 0 4.941 2.225 4.941 4.969v116.993c0 2.744-2.212 4.968-4.941 4.968" clip-rule="evenodd"/><path fill="url(#t)" fill-rule="evenodd" d="M129.879 263.816H33.597a.916.916 0 0 1-.914-.919V159.423c0-.507.41-.919.914-.919h96.282c.505 0 .915.412.915.919v103.474c0 .508-.41.919-.915.919" clip-rule="evenodd"/><path fill="url(#u)" fill-rule="evenodd" d="m116.86 279.296-83.036-14.974c-.366-.066-.662-.562-.662-1.108V160.28c0-.546.296-1.042.662-1.108l83.036-14.974c.606-.11 1.098.373 1.098 1.079v132.94c0 .706-.492 1.189-1.098 1.079" clip-rule="evenodd"/><path fill="url(#v)" fill-rule="evenodd" d="M94.6 211.747c0 16.373-10.423 28.769-22.461 27.756-11.22-.944-19.77-13.346-19.77-27.756s8.55-26.812 19.77-27.756c12.038-1.013 22.461 11.383 22.461 27.756" clip-rule="evenodd"/><path fill="url(#w)" fill-rule="evenodd" d="M89.164 211.747c0 12.41-7.835 21.963-17.025 21.368-8.705-.564-15.432-10.119-15.432-21.368s6.727-20.804 15.432-21.368c9.19-.595 17.025 8.958 17.025 21.368" clip-rule="evenodd"/><path fill="#6A81AF" fill-rule="evenodd" d="M77.896 211.747c0 4.197-2.602 7.54-5.757 7.468-3.096-.07-5.563-3.413-5.563-7.468s2.467-7.398 5.563-7.468c3.155-.072 5.757 3.271 5.757 7.468" clip-rule="evenodd"/><mask id="x" width="6" height="13" x="72" y="207" maskUnits="userSpaceOnUse" style="mask-type:alpha"><path fill="#fff" fill-rule="evenodd" d="m72.314 219.218-.1-.001-.031-.001h.055c3.11 0 5.658-3.316 5.658-7.469 0-1.587-.372-3.052-1.005-4.256a9 9 0 0 0-.198-.475c.8 1.288 1.282 2.934 1.282 4.731 0 4.154-2.55 7.471-5.66 7.471" clip-rule="evenodd"/></mask><g mask="url(#x)"><path fill="#AEC2C3" fill-rule="evenodd" d="M72.183 219.218h5.792v-12.202h-5.792z" clip-rule="evenodd"/></g><path fill="#fff" fill-rule="evenodd" d="M72.601 232.725v-4.745c0-.654-.77-.692-.77-.038v4.734c0 .653.77.705.77.049m0-37.211v-4.745c0-.655-.77-.605-.77.049v4.734c0 .653.77.618.77-.038m-15.603 16.917 3.302-.016c.461-.002.458-.983-.003-.979l-3.303.026c-.45.004-.447.971.004.969m27.9-.137 3.918-.02c.547-.002.543-1.071-.005-1.066l-3.918.031c-.533.004-.53 1.057.005 1.055m-23.114 14.557 2.345-3.231c.326-.449-.203-1.153-.529-.703l-2.337 3.231c-.32.442.2 1.146.52.703m19.361-26.675 2.64-3.636c.366-.506-.23-1.205-.596-.699l-2.63 3.635c-.36.497.225 1.198.586.7m-19.328-3.377 2.215 3.397c.308.472.865-.195.555-.668l-2.223-3.398c-.304-.465-.851.204-.547.669m18.239 27.962q1.23 1.89 2.476 3.797c.344.528.968-.125.621-.655l-2.486-3.799c-.34-.519-.95.137-.611.657" clip-rule="evenodd"/><path fill="#75829C" fill-rule="evenodd" d="m105.605 235.089-.04-.003c-.794-.051-1.435-.861-1.435-1.811V191.17c0-.949.641-1.758 1.435-1.807l.04-.003c.798-.049 1.446.687 1.446 1.644v42.445c0 .957-.648 1.691-1.446 1.64m13.413 44.223h-2.158V144.198h2.158c.268 0 .486.219.486.489v134.136c0 .27-.218.489-.486.489" clip-rule="evenodd"/><path fill="#2E3549" fill-rule="evenodd" d="M36.92 186.335v-7.056a3.29 3.29 0 0 0-3.279-3.297 3.29 3.29 0 0 0-3.278 3.297v7.056zm-6.557.923v7.056a3.29 3.29 0 0 0 3.278 3.297 3.29 3.29 0 0 0 3.28-3.297v-7.056zm5.727 46.73v-7.056a3.29 3.29 0 0 0-3.28-3.297 3.29 3.29 0 0 0-3.278 3.297v7.056zm-6.558.923v7.055a3.29 3.29 0 0 0 3.279 3.297 3.29 3.29 0 0 0 3.279-3.297v-7.055z" clip-rule="evenodd"/><defs><linearGradient id="a" x1="262.473" x2="269.024" y1="126.965" y2="115.619" gradientUnits="userSpaceOnUse"><stop stop-color="#00ADB5"/><stop offset="1" stop-color="#45D8DF"/></linearGradient><linearGradient id="b" x1="58.778" x2="65.329" y1="49.776" y2="38.429" gradientUnits="userSpaceOnUse"><stop stop-color="#00ADB5"/><stop offset="1" stop-color="#45D8DF"/></linearGradient><linearGradient id="d" x1="104.573" x2="104.573" y1="82.812" y2="94.447" gradientUnits="userSpaceOnUse"><stop stop-color="#00ADB5"/><stop offset="1" stop-color="#45D8DF"/></linearGradient><linearGradient id="e" x1="112.356" x2="112.356" y1="30.011" y2="39.707" gradientUnits="userSpaceOnUse"><stop stop-color="#00ADB5"/><stop offset="1" stop-color="#45D8DF"/></linearGradient><linearGradient id="f" x1="130.663" x2="130.663" y1="92.086" y2="95.765" gradientUnits="userSpaceOnUse"><stop stop-color="#00ADB5"/><stop offset="1" stop-color="#45D8DF"/></linearGradient><linearGradient id="g" x1="128.064" x2="128.064" y1="139.325" y2="143.004" gradientUnits="userSpaceOnUse"><stop stop-color="#00ADB5"/><stop offset="1" stop-color="#45D8DF"/></linearGradient><linearGradient id="h" x1="85.582" x2="85.582" y1="83.666" y2="87.345" gradientUnits="userSpaceOnUse"><stop stop-color="#00ADB5"/><stop offset="1" stop-color="#45D8DF"/></linearGradient><linearGradient id="i" x1="39.156" x2="39.156" y1="95.304" y2="98.983" gradientUnits="userSpaceOnUse"><stop stop-color="#00ADB5"/><stop offset="1" stop-color="#45D8DF"/></linearGradient><linearGradient id="j" x1="159.289" x2="159.289" y1="64.904" y2="68.583" gradientUnits="userSpaceOnUse"><stop stop-color="#00ADB5"/><stop offset="1" stop-color="#45D8DF"/></linearGradient><linearGradient id="k" x1="79.02" x2="79.02" y1="37.751" y2="41.43" gradientUnits="userSpaceOnUse"><stop stop-color="#00ADB5"/><stop offset="1" stop-color="#45D8DF"/></linearGradient><linearGradient id="l" x1="105.411" x2="105.411" y1="55.178" y2="58.857" gradientUnits="userSpaceOnUse"><stop stop-color="#00ADB5"/><stop offset="1" stop-color="#45D8DF"/></linearGradient><linearGradient id="m" x1="148.811" x2="148.811" y1="99.597" y2="103.276" gradientUnits="userSpaceOnUse"><stop stop-color="#00ADB5"/><stop offset="1" stop-color="#45D8DF"/></linearGradient><linearGradient id="n" x1="97.658" x2="97.658" y1="124.699" y2="128.378" gradientUnits="userSpaceOnUse"><stop stop-color="#00ADB5"/><stop offset="1" stop-color="#45D8DF"/></linearGradient><linearGradient id="o" x1="210.847" x2="210.847" y1="148.818" y2="171.12" gradientUnits="userSpaceOnUse"><stop stop-color="#00ADB5"/><stop offset="1" stop-color="#45D8DF"/></linearGradient><linearGradient id="p" x1="152.474" x2="152.474" y1="201.908" y2="273.279" gradientUnits="userSpaceOnUse"><stop stop-color="#3E568F"/><stop offset="1" stop-color="#1D2B56"/></linearGradient><linearGradient id="q" x1="175.318" x2="175.318" y1="155.399" y2="222.137" gradientUnits="userSpaceOnUse"><stop stop-color="#00ADB5"/><stop offset="1" stop-color="#45D8DF"/></linearGradient><linearGradient id="r" x1="201.913" x2="201.913" y1="160.626" y2="198.011" gradientUnits="userSpaceOnUse"><stop stop-color="#00ADB5"/><stop offset="1" stop-color="#45D8DF"/></linearGradient><linearGradient id="s" x1="25.795" x2="25.795" y1="147.695" y2="270.762" gradientUnits="userSpaceOnUse"><stop stop-color="#00ADB5"/><stop offset="1" stop-color="#45D8DF"/></linearGradient><linearGradient id="t" x1="34.176" x2="34.176" y1="158.504" y2="260.611" gradientUnits="userSpaceOnUse"><stop stop-color="#062122"/><stop offset="1" stop-color="#006065"/></linearGradient><linearGradient id="u" x1="34.452" x2="34.452" y1="144.182" y2="275.199" gradientUnits="userSpaceOnUse"><stop stop-color="#00ADB5"/><stop offset="1" stop-color="#8AFAFF"/></linearGradient><linearGradient id="v" x1="53.012" x2="53.012" y1="183.933" y2="237.868" gradientUnits="userSpaceOnUse"><stop stop-color="#25959A"/><stop offset="1" stop-color="#34C4CB"/></linearGradient><linearGradient id="w" x1="57.201" x2="57.201" y1="190.353" y2="231.839" gradientUnits="userSpaceOnUse"><stop stop-color="#2DDAE2"/><stop offset="1" stop-color="#24A4AA"/></linearGradient><filter id="c" width="17.439" height="17.439" x="101.671" y="80.093" color-interpolation-filters="sRGB" filterUnits="userSpaceOnUse"><feFlood flood-opacity="0" result="BackgroundImageFix"/><feBlend in="SourceGraphic" in2="BackgroundImageFix" result="shape"/><feGaussianBlur result="effect1_foregroundBlur_1_167" stdDeviation="1.359"/></filter></defs></svg>