<svg xmlns="http://www.w3.org/2000/svg" width="24" height="24" fill="none"><path stroke="#008288" stroke-linecap="round" stroke-linejoin="round" stroke-width="2" d="M20 4v5h-5M4 20v-5h5"/><path stroke="#008288" stroke-linecap="round" stroke-linejoin="round" stroke-width="2" d="M4 9.333A8 8 0 0 1 6.36 6.02a8.66 8.66 0 0 1 3.76-1.824 8.96 8.96 0 0 1 4.225.118 8.6 8.6 0 0 1 3.64 2.03L20 8.888M4 15.112l2.006 2.543a8.6 8.6 0 0 0 3.64 2.03 8.96 8.96 0 0 0 4.225.118 8.66 8.66 0 0 0 3.76-1.824 8 8 0 0 0 2.36-3.312"/></svg>